<svg width="21" height="22" viewBox="0 0 21 22" fill="none" xmlns="http://www.w3.org/2000/svg">
<g clip-path="url(#clip0)">
<path fill-rule="evenodd" clip-rule="evenodd" d="M10.5 21.9679C16.299 21.9679 21 17.4149 21 11.7984C21 6.18194 16.299 1.62891 10.5 1.62891C4.70101 1.62891 0 6.18194 0 11.7984C0 17.4149 4.70101 21.9679 10.5 21.9679Z" fill="black"/>
<path d="M12.904 13.544C12.904 11.96 11.812 11.012 10.66 11.012C10.456 11.012 10.228 11.036 10.024 11.12L11.8 7.59199H10.096L8.296 11.288C7.912 12.068 7.576 12.788 7.576 13.568C7.576 15.26 8.728 16.208 10.24 16.208C11.752 16.208 12.904 15.224 12.904 13.544ZM11.344 13.556C11.344 14.348 10.876 14.804 10.24 14.804C9.604 14.804 9.136 14.348 9.136 13.556C9.136 12.764 9.604 12.308 10.24 12.308C10.9 12.308 11.344 12.8 11.344 13.556Z" fill="white"/>
</g>
<defs>
<clipPath id="clip0">
<rect width="21" height="21.3559" fill="white" transform="translate(0 0.612061)"/>
</clipPath>
</defs>
</svg>
